<svg xmlns="http://www.w3.org/2000/svg" width="141.85" height="68.5"><path d="M131.246 27.97v2.82h3.768v9.742h3.014V30.79h3.822v-2.82zm-23.242 9.742V35.49h4.79v-2.64h-4.79v-2.06h6.118v-2.82h-9.133v12.559h9.24v-2.817zM97.385 27.97v2.871c0 2.279.037 4.5.018 4.5h-.018c-.017 0-1.937-2.709-2.745-3.785l-2.673-3.588h-2.835v12.559h3.015v-2.781c0-2.745-.036-4.683-.018-4.683h.018c.018 0 1.7 2.387 2.852 3.965l2.566 3.5h2.835V27.97h-3.015zm-15.862 0v2.871c0 2.279.036 4.5.017 4.5h-.017c-.017 0-1.938-2.709-2.745-3.785l-2.673-3.588H73.27v12.559h3.018v-2.781c0-2.745-.036-4.683-.018-4.683h.018c.018 0 1.7 2.387 2.852 3.965l2.566 3.5h2.835V27.97h-3.014zm-21.836 6.28a3.386 3.386 0 113.373 3.552 3.28 3.28 0 01-3.373-3.552m-3.14 0a6.522 6.522 0 106.512-6.531 6.4 6.4 0 00-6.512 6.531m-4.792 2.512a3.552 3.552 0 110-5.024l2.106-2.107a6.531 6.531 0 100 9.236zm74.657 0a3.552 3.552 0 110-5.024l2.107-2.107a6.531 6.531 0 100 9.236z" fill="#38415f"/><path d="M27.835 30.739L8.468 11.373a4.96 4.96 0 00-7.015 7.015l15.859 15.859 3.508-3.508a4.959 4.959 0 017.015 0zm-3.508 8.472a4.944 4.944 0 01-3.508-1.454l-3.507-3.506L1.457 50.108a4.961 4.961 0 107.015 7.016l19.367-19.366a4.946 4.946 0 01-3.512 1.453z" fill="#48bcc7"/><path d="M24.327 39.211a4.961 4.961 0 10-3.508-8.469l-3.508 3.508 3.508 3.508a4.945 4.945 0 003.508 1.453z" fill="#329096"/><path d="M30.742 27.835a4.959 4.959 0 010-7.015l3.508-3.508L18.391 1.454a4.961 4.961 0 00-7.015 7.015zm7.016 0l9.076-9.076a4.961 4.961 0 00-7.016-7.015l-5.568 5.568 3.508 3.508a4.959 4.959 0 010 7.015z" fill="#b329b7"/><path d="M30.742 27.835a4.961 4.961 0 007.015-7.015l-3.508-3.508-3.508 3.508a4.96 4.96 0 00.001 7.015z" fill="#86258e"/><path d="M30.742 40.664L11.376 60.03a4.96 4.96 0 107.015 7.015L34.25 51.187l-3.508-3.508a4.96 4.96 0 010-7.015zm7.016 0a4.96 4.96 0 010 7.016l-3.508 3.507 5.568 5.568a4.961 4.961 0 007.016-7.015z" fill="#aecb40"/><path d="M37.757 40.664a4.961 4.961 0 10-7.015 7.016l3.508 3.508 3.508-3.508a4.96 4.96 0 00-.001-7.016z" fill="#94a839"/></svg>