<svg xmlns="http://www.w3.org/2000/svg" width="160" height="47.329"><path d="M24.239 43.747a46.334 46.334 0 01-5.554 3.558.2.2 0 01-.186 0C17.22 46.63 3.115 38.947.418 26.99a.2.2 0 01.37-.141c1.928 3.449 6.273 5.967 9.382 7.64 2.626 1.412 5.685 2.512 8.423 4.02a15.046 15.046 0 015.7 4.969.2.2 0 01-.054.269zM37.184 6.159V.446A.446.446 0 0036.739 0H23.078a.73.73 0 00-.668.511l-.951 3.516a.73.73 0 01-.668.511h-6.21V2.72a11.2 11.2 0 004.011-.756A3.153 3.153 0 0020.561.141a.111.111 0 00-.106-.142h-8.292a4.667 4.667 0 00-4.307 2.006c-.969 1.648-.913 3.906-.825 5.749A11.5 11.5 0 014.992.305a.276.276 0 00-.274-.306H.442a.44.44 0 00-.44.44v1.125c.244 3.965 2.459 14.438 18.592 19.283 13.6 4.085 15.625 10.351 16.021 11.449a.069.069 0 00.127.008c3.768-7.2-4.077-12.384-4.077-12.384a14.175 14.175 0 015.9 1.991.415.415 0 00.619-.361v-7.988a.731.731 0 00-.908-.709c-.675.17-1.5.334-1.644.362a9.252 9.252 0 01-6.1-.437 3.11 3.11 0 01-.917-4.915 6.293 6.293 0 015.118-1.75 22.135 22.135 0 013.688.632.608.608 0 00.763-.586zm-8.999 34.307a.2.2 0 01-.3-.006 33.367 33.367 0 00-9.292-7.326 37.948 37.948 0 00-4.011-1.9C5.9 27.723.438 24.064.001 14.318v-.311a.2.2 0 01.361-.117c3.182 4.354 7.239 6.9 12.166 9.345 2.015 1 4.061 1.818 6.065 2.665a30.768 30.768 0 019.243 5.393 6.089 6.089 0 01.351 9.175z" fill="#baa952"/><path d="M59.984 18.441v3.512h4.47v3.512h-4.47v7.025h-3.513V14.928h8.769v3.512h-5.256zm12.968 7.933V14.928h3.513V26.35c0 3.684 5.7 3.684 5.7 0V14.928h3.488v11.446c-.002 8.351-12.701 8.351-12.701 0zm29.622 6.216c-11.594 0-12.183-17.366 0-17.808a11.844 11.844 0 014.1.639l-.417 3.562a8.319 8.319 0 00-3.685-.639c-7.1.246-6.779 10.734 0 10.734a6.647 6.647 0 00.983-.1v-5.281h3.562v7.713a9.141 9.141 0 01-4.543 1.18zm13.312-.099V14.929h3.512v17.562zm18.201-18.201h.368l7.394 18.2h-3.955l-.712-1.891h-5.821l-.688 1.891h-3.979zm1.793 13.018l-1.6-4.569-1.646 4.569zm16.235 5.18v-14.05h-4.372V14.95H160v3.488h-4.372v14.05z" fill="#51544f"/></svg>