<svg xmlns="http://www.w3.org/2000/svg" width="108.601" height="90.35"><g fill="#2fc77a"><path d="M6.438 26.737a.842.842 0 10.218 1.169.841.841 0 00-.218-1.169zm-1.771 5.347a1.749 1.749 0 10.726 2.365 1.75 1.75 0 00-.726-2.365zm-1.033 7.481a2.657 2.657 0 101.495 3.447 2.656 2.656 0 00-1.495-3.447zm1.303 9.169a3.564 3.564 0 102.5 4.379 3.565 3.565 0 00-2.5-4.379zm7.903 16.351a4.47 4.47 0 10-5.129 3.7 4.469 4.469 0 005.129-3.7z"/><path d="M36.634 89.576a.84.84 0 10-.9.772.843.843 0 00.9-.772z" opacity=".2"/><path d="M29.964 85.574a1.75 1.75 0 101.393 2.042 1.748 1.748 0 00-1.393-2.042z" opacity=".4"/><path d="M23.106 80.432a2.657 2.657 0 101.756 3.321 2.66 2.66 0 00-1.756-3.321z" opacity=".6"/><path d="M16.663 72.32a3.565 3.565 0 101.857 4.687 3.567 3.567 0 00-1.857-4.687z" opacity=".8"/></g><g fill="#2fc77a"><path d="M33.868.559a.842.842 0 10-.51 1.076.845.845 0 00.51-1.076zM29.295 3.84a1.749 1.749 0 10-.8 2.34 1.75 1.75 0 00.8-2.34zm-5.236 5.446a2.658 2.658 0 10-.818 3.669 2.657 2.657 0 00.818-3.669zm-4.334 8.183a3.564 3.564 0 10-.554 5.009 3.563 3.563 0 00.554-5.009zm-3.216 17.873a4.471 4.471 0 10-6.323-.025 4.469 4.469 0 006.323.025z"/><path d="M21.365 69.141a.841.841 0 10-1.184.1.843.843 0 001.184-.1z" opacity=".2"/><path d="M18.32 61.985a1.749 1.749 0 10-.077 2.472 1.749 1.749 0 00.077-2.472z" opacity=".4"/><path d="M15.796 53.793a2.657 2.657 0 10-.532 3.718 2.658 2.658 0 00.532-3.718z" opacity=".6"/><path d="M15.35 43.444a3.565 3.565 0 10-1.252 4.883 3.565 3.565 0 001.252-4.883z" opacity=".8"/></g><path d="M35.403 55.684v-2.432a4.908 4.908 0 001 .664 8.6 8.6 0 001.227.5 10.358 10.358 0 001.3.317 7.574 7.574 0 001.205.108 4.7 4.7 0 002.845-.707 2.644 2.644 0 00.627-3.272 3.523 3.523 0 00-.867-.963 8.255 8.255 0 00-1.307-.833q-.756-.4-1.63-.84a29.264 29.264 0 01-1.719-.947 7.315 7.315 0 01-1.387-1.058 4.407 4.407 0 01-.929-1.31 4.452 4.452 0 01.191-3.807 4.558 4.558 0 011.387-1.47 6.3 6.3 0 011.962-.858 8.854 8.854 0 012.24-.288 8.56 8.56 0 013.795.627v2.322a6.884 6.884 0 00-4-1.082 6.5 6.5 0 00-1.35.141 3.9 3.9 0 00-1.205.461 2.619 2.619 0 00-.858.824 2.177 2.177 0 00-.332 1.227 2.507 2.507 0 00.252 1.166 2.883 2.883 0 00.741.9 7.434 7.434 0 001.2.784c.471.252 1.015.535 1.627.833.63.314 1.227.64 1.8.984a7.97 7.97 0 011.485 1.141 5.1 5.1 0 011.012 1.387 3.908 3.908 0 01.375 1.744 4.445 4.445 0 01-.51 2.2 4.2 4.2 0 01-1.375 1.47 6.009 6.009 0 01-2 .818 10.842 10.842 0 01-2.38.252 10.149 10.149 0 01-1.033-.065c-.409-.046-.83-.111-1.252-.2a9.244 9.244 0 01-1.209-.32 3.885 3.885 0 01-.928-.418zm18.77-5.944v6.658H52.11V38.78h4.84a6.4 6.4 0 014.379 1.375 4.91 4.91 0 011.556 3.881 5.341 5.341 0 01-1.728 4.1 6.589 6.589 0 01-4.665 1.6h-2.319zm0-9.093v7.223h2.162a4.817 4.817 0 003.26-.975 3.458 3.458 0 001.127-2.758q0-3.487-4.13-3.49zm18.326-1.867v1.768H70.78v14.078h1.719v1.768h-5.5v-1.768h1.717V40.548h-1.722V38.78zm19.632 17.618H89.6L80.535 42.36a5.965 5.965 0 01-.566-1.107h-.071a18.523 18.523 0 01.1 2.42v12.725H77.93V38.78h2.678l8.82 13.82c.369.575.606.966.713 1.181h.052a18.447 18.447 0 01-.123-2.592V38.78h2.063v17.618zm16.47 0h-9.336V38.78h8.943v1.867h-6.88v5.861h6.363v1.852h-6.363v6.166h7.273v1.87z" fill="#292526"/></svg>