<svg xmlns="http://www.w3.org/2000/svg" width="160" height="48.112"><path d="M68.778 27.671L64.451 16.88h-2.762l5.946 14.351h2.3l5.946-14.351H73.12zm15.231-2.429h6.85v-2.488h-6.85v-3.391h7.424v-2.488h-9.989v14.351h10.1v-2.487h-7.539zm23.632 1.383l-7.339-9.745h-2.213v14.351h2.564v-9.762l7.339 9.762h2.21V16.88h-2.564zm9.912-9.745h2.564v14.351h-2.564zm14.1 0L125.4 31.231h2.788l1.378-3.234h6.582l1.378 3.234h2.768l-6.233-14.351zm-1.051 8.668l2.245-5.3 2.26 5.3zm27.286-8.668l-5.274 7.885-5.274-7.885h-2.112v14.351h2.564v-9.252l4.068 6.095h1.507l4.069-6.095v9.252H160V16.88zm-112.85-6.652a10.471 10.471 0 00-4.546-2.674 10.417 10.417 0 00-16.316-5.279A10.5 10.5 0 007.55 7.614a10.418 10.418 0 00-5.277 16.315A10.489 10.489 0 007.61 40.552a10.418 10.418 0 009.9 7.428h.084a10.344 10.344 0 006.336-2.149 10.411 10.411 0 006.528 2.281h.082a78.948 78.948 0 0114.388-10.23 10.418 10.418 0 00.9-13.7 10.511 10.511 0 00-.79-13.954zm-.979 12.054l-5.334-5.334a10.336 10.336 0 002.206-6.513 7.938 7.938 0 013.128 11.847zm-5.695 16.049a7.973 7.973 0 01-.8.041 7.8 7.8 0 01-5.457-2.208q-.027-.027-.056-.051L32 36.065l-.007-.007.017.016a20.169 20.169 0 01-6.332-10.4 20.163 20.163 0 0110.32 6.251l.067.08.058.066.052.055.017.017.041.037.011.01a7.921 7.921 0 012.12 6.14zm-14.311 4.1l-5.32-5.319a22.747 22.747 0 005.318-8.08 22.741 22.741 0 005.317 8.084zm-7.9-6.416l-.026.024-.083.073a1.14 1.14 0 00-.071.068l-.005.005-.042.046-.009.01a7.885 7.885 0 01-5.434 2.154q-.358 0-.716-.032a7.837 7.837 0 012.092-6.178l.01-.009.048-.045.016-.016c.019-.019.038-.039.056-.06l.031-.035.013-.015.029-.033.024-.027a20.157 20.157 0 0110.342-6.274 20.179 20.179 0 01-6.271 10.346zM9.733 9.772a7.9 7.9 0 01.8-.041 7.805 7.805 0 015.555 2.3h.005a.93.93 0 00.056.052 20.157 20.157 0 016.274 10.34 20.131 20.131 0 01-10.333-6.26l-.009-.01c-.016-.019-.033-.036-.05-.054l-.005-.005a7.923 7.923 0 01-2.289-6.32zm14.316-3.886l5.209 5.212a22.7 22.7 0 00-5.21 7.974 22.725 22.725 0 00-5.211-7.973zm7.865 6.229c.031-.026.062-.053.091-.082a7.885 7.885 0 015.613-2.325c.237 0 .474.011.71.032a7.81 7.81 0 01-2.262 6.353 1.3 1.3 0 00-.1.111 20.149 20.149 0 01-10.3 6.225 20.133 20.133 0 016.252-10.313zm-20.821 6.728a22.7 22.7 0 007.975 5.21 22.725 22.725 0 00-8.08 5.318L5.777 24.16zm26.016 10.53a22.729 22.729 0 00-8.084-5.321 22.709 22.709 0 007.977-5.209l5.318 5.318zM36.068 4.984a7.8 7.8 0 011.535 2.169 10.414 10.414 0 00-6.448 2.226l-5.223-5.227a7.876 7.876 0 0110.139.833zm-13.791-.94l-5.334 5.334a10.332 10.332 0 00-6.4-2.2h-.112a7.94 7.94 0 0111.85-3.133zm-17.3 7.991a7.861 7.861 0 012.165-1.534 10.464 10.464 0 002.227 6.447l-5.223 5.223a7.859 7.859 0 01.831-10.136zM3.948 25.949l5.331 5.33a10.383 10.383 0 00-2.112 6.392 7.932 7.932 0 01-3.219-11.723zm8.077 17.171a7.858 7.858 0 01-1.534-2.169 10.423 10.423 0 006.328-2.131l5.217 5.217a7.9 7.9 0 01-10.004-.916zm13.92 1.028l5.329-5.329a10.336 10.336 0 006.279 2.107h.116a7.886 7.886 0 01-1.606 2.3 7.976 7.976 0 01-10.111.923zm17.166-8.076a7.843 7.843 0 01-2.167 1.534 10.477 10.477 0 00-2.133-6.323l5.219-5.219a7.9 7.9 0 01-.912 10.009z" fill="#877e80"/></svg>