<svg width="50" height="50" viewBox="0 0 50 50" fill="none" xmlns="http://www.w3.org/2000/svg">
<path d="M18.75 42.1875H9.375C8.9606 42.1875 8.56317 42.0229 8.27015 41.7299C7.97712 41.4368 7.8125 41.0394 7.8125 40.625V31.8972C7.8125 31.692 7.85291 31.4888 7.93144 31.2993C8.00996 31.1097 8.12505 30.9374 8.27015 30.7924L31.7076 7.35486C32.0007 7.06184 32.3981 6.89722 32.8125 6.89722C33.2269 6.89722 33.6243 7.06184 33.9173 7.35486L42.6451 16.0827C42.9382 16.3757 43.1028 16.7731 43.1028 17.1875C43.1028 17.6019 42.9382 17.9993 42.6451 18.2924L18.75 42.1875Z" stroke="#FDB913" stroke-width="2" stroke-linecap="round" stroke-linejoin="round"/>
<path d="M26.5625 12.5L37.5 23.4375" stroke="#FDB913" stroke-width="2" stroke-linecap="round" stroke-linejoin="round"/>
<path d="M42.1877 42.1876H18.7502L7.91211 31.3495" stroke="#FDB913" stroke-width="2" stroke-linecap="round" stroke-linejoin="round"/>
</svg>
